<?xml version="1.0" encoding="UTF-8"?>
<svg xmlns="http://www.w3.org/2000/svg" version="1.1" viewBox="0 0 87.6 85.3">
  <defs>
    <style>
      .cls-1 {
        fill: #fff;
      }
    </style>
  </defs>
  <!-- Generator: Adobe Illustrator 28.6.0, SVG Export Plug-In . SVG Version: 1.2.0 Build 709)  -->
  <g>
    <g id="Layer_1">
      <g id="Layer_1-2" data-name="Layer_1">
        <polyline class="cls-1" points="6.7 14.9 8.4 14.9 10.7 19 9.7 20.9 6.7 15"/>
        <polygon class="cls-1" points="70.9 40.3 65.1 50.8 50.6 44.6 48.5 27.2 62.8 26.9 70.9 40.3"/>
        <line class="cls-1" x1="45" y1="23.1" x2="44.8" y2="23.3"/>
        <line class="cls-1" x1="7.8" y1="37.5" x2="7.7" y2="37.6"/>
        <polyline class="cls-1" points="67.4 25.5 71.5 17.6 80.3 20.5 84.9 31.1 80.7 39 72 36.2 67.4 25.5"/>
        <polyline class="cls-1" points="21.1 20 21.4 20.4 19.5 25.1 14.4 25.8 12.6 23.5"/>
        <polygon class="cls-1" points="27.5 19.6 30.6 23.8 28.7 28.6 23.6 29.3 20.5 25.1 22.4 20.3 27.5 19.6"/>
        <polyline class="cls-1" points="12.3 41 14.2 36.5 10.9 32.2 6.3 32.8"/>
        <polygon class="cls-1" points="19.1 26.8 22 30.5 20.2 34.9 15.5 35.5 12.6 31.7 14.4 27.4 19.1 26.8"/>
        <polyline class="cls-1" points="13.7 41.4 15.4 37.3 20.2 36.7 20.3 36.6 23.3 40.5 23.4 40.6 22.2 43.3"/>
        <polygon class="cls-1" points="38 19.3 36.7 22.7 31.5 23.5 31.4 23.5 28.2 19.1 28.2 19 28.1 18.9 28.6 17.9 34.1 16.6 38 19.3"/>
        <polyline class="cls-1" points="39.3 19.5 38 22.7 38 22.7 41.2 26.9 41.2 26.9 46.5 26.2 47.1 24.9 47.2 24.5 47.2 24.5 47.2 24.5"/>
        <polygon class="cls-1" points="28.6 30.7 31.5 34.5 29.7 39 24.9 39.7 21.9 35.8 23.8 31.3 28.6 30.7"/>
        <polygon class="cls-1" points="37.3 23.6 40.5 27.7 38.4 32.6 33.3 33.2 30.1 29.1 32.1 24.3 37.3 23.6"/>
        <polygon class="cls-1" points="32.8 41.3 31.5 39.6 33.4 34.9 38.5 34.2 40.9 37.3 39.4 39.8 32.8 41.3"/>
        <polygon class="cls-1" points="35 8.3 34.9 8.6 34.8 8.6 29.3 8.6 29.2 8.6 28.3 6.8 35 8.3"/>
        <polyline class="cls-1" points="19.4 4.4 19.4 4.4 19.5 4.4 19.4 4.5 16.8 9 16.8 9.1 16.8 9.1 11.4 9.1 11.4 9.1 11.3 9"/>
        <polygon class="cls-1" points="10.6 9.4 10.7 9.5 8.1 14 8 14.1 6.4 14.1 5.6 12.6 10.6 9.4"/>
        <line class="cls-1" x1="26.1" y1="24.6" x2="26.1" y2="24.6"/>
        <polygon class="cls-1" points="18.5 14.3 16.2 18.3 11.5 18.3 9.2 14.3 11.5 10.3 16.2 10.3 18.5 14.3"/>
        <line class="cls-1" x1="26.1" y1="24.6" x2="26.1" y2="24.6"/>
        <polygon class="cls-1" points="17 20.2 16.7 19.7 11.3 19.7 10.4 21.4 11.1 22.9 17.2 20.5 17 20.2"/>
        <polygon class="cls-1" points="34 66.7 44.7 80.4 44.6 80.6 24.7 83.4 16.4 65.2 16.5 65 34 66.7"/>
        <polygon class="cls-1" points="53.1 66.2 49.4 73.4 39 57.7 21.7 56.3 25.3 49.3 43.4 49.3 53.1 66.2"/>
        <polygon class="cls-1" points="23.9 42.9 24.9 40.3 30.6 39.3 31.8 41.1 23.9 42.9"/>
        <polygon class="cls-1" points="13.7 41.4 17.8 44.2 22.1 43.2 13.7 41.4"/>
        <polygon class="cls-1" points="6.4 32.7 4.5 35.7 12.4 41 11.6 37.5 6.4 32.7"/>
        <polygon class="cls-1" points="11.6 24.1 13.4 26.4 11.4 31.4 7 31.9 11.6 24.1"/>
        <polygon class="cls-1" points="46.5 27.4 41.3 28.2 39.2 33.5 41.6 36.7 46.9 27.5 46.5 27.4"/>
        <polyline class="cls-1" points="26.9 17.6 18 20.2 17.9 20.1 17.6 19.5 20.1 14.9 20.1 14.9 25.3 14.9 25.3 14.9"/>
        <polyline class="cls-1" points="36.2 16.9 34.4 15.7 28.2 16.9 26.6 14 29.4 9.2 35 9.2 37.8 14 36.2 16.9"/>
        <polyline class="cls-1" points="45.3 22.4 44.9 23 45.2 22.5 46.3 20.6 43.5 15.1 39.1 15.1 37.6 17.7 37.6 17.7 44.9 22.4"/>
        <path class="cls-1" d="M43.2,14.1"/>
        <polygon class="cls-1" points="36 8.5 40.8 9.8 42.8 13.8 38.9 13.8 35.7 8.7 36 8.5"/>
        <polygon class="cls-1" points="20.4 4.5 27.1 6.3 28.4 8.6 25.7 13.5 20.2 13.5 17.7 9.1 20.4 4.5"/>
        <polygon class="cls-1" points="21.8 19.7 27.9 18.4 27.4 19.3 22.3 19.9 21.8 19.7 21.8 19.7"/>
      </g>
    </g>
  </g>
</svg>